<?xml version="1.0" standalone="no"?>
<!DOCTYPE svg PUBLIC "-//W3C//DTD SVG 20010904//EN"
 "http://www.w3.org/TR/2001/REC-SVG-20010904/DTD/svg10.dtd">
<svg version="1.0" xmlns="http://www.w3.org/2000/svg"
 width="600.000000pt" height="594.000000pt" viewBox="0 0 600.000000 594.000000"
 preserveAspectRatio="xMidYMid meet">
<metadata>
Created by potrace 1.15, written by Peter Selinger 2001-2017
</metadata>
<g transform="translate(0.000000,594.000000) scale(0.100000,-0.100000)"
fill="#000000" stroke="none">
<path d="M0 2970 l0 -2970 3000 0 3000 0 0 2970 0 2970 -3000 0 -3000 0 0
-2970z m3872 1969 c195 -41 358 -188 434 -389 24 -66 28 -89 28 -195 1 -135
-11 -184 -72 -295 -90 -163 -250 -273 -440 -300 -194 -29 -392 43 -526 192
-85 94 -155 258 -156 366 l0 32 119 0 118 0 12 -58 c23 -116 87 -204 185 -254
186 -94 406 -21 492 165 25 54 29 74 29 152 0 79 -4 97 -29 149 -37 76 -96
135 -172 172 l-59 29 -815 0 -815 0 -60 -29 c-73 -36 -135 -99 -172 -174 -24
-50 -28 -69 -28 -147 0 -78 4 -98 29 -152 86 -186 306 -259 492 -165 98 50
162 138 185 254 l12 58 120 0 120 0 -7 -66 c-17 -169 -125 -341 -271 -434 -87
-54 -146 -76 -243 -90 -370 -54 -702 251 -679 625 16 264 201 490 452 551 68
17 1639 19 1717 3z m48 -1429 l-60 -120 -120 0 -120 0 0 -420 0 -420 -120 0
-120 0 0 420 0 420 -120 0 -120 0 0 -420 0 -420 -120 0 -120 0 0 420 0 420
-120 0 -120 0 0 -420 0 -420 -120 0 -120 0 0 420 0 420 -120 0 -120 0 -60 120
-60 120 960 0 960 0 -60 -120z m-1850 -1525 l0 -495 -50 0 -50 0 0 495 0 495
50 0 50 0 0 -495z m-495 412 c33 -16 71 -38 84 -50 38 -35 61 -95 61 -162 0
-75 -24 -129 -76 -174 -21 -19 -34 -36 -29 -38 40 -14 94 -55 120 -91 28 -41
30 -49 30 -136 0 -86 -2 -96 -29 -135 -70 -100 -164 -123 -496 -119 l-245 3
-3 468 -2 469 262 -4 263 -3 60 -28z m2625 -24 c18 -32 45 -78 60 -103 28 -47
103 -176 173 -295 97 -168 124 -210 133 -209 5 0 30 36 55 80 178 306 238 410
283 489 l51 90 48 3 47 3 -2 -468 -3 -468 -50 0 -50 0 -5 352 -5 353 -45 -77
c-25 -42 -101 -174 -170 -292 -116 -200 -128 -216 -155 -219 -33 -3 -12 -36
-284 430 -47 81 -89 148 -93 148 -5 0 -8 -157 -8 -350 l0 -350 -50 0 -50 0 0
470 0 470 43 0 c42 0 44 -2 77 -57z m-1426 -207 c72 -36 127 -90 163 -164 25
-51 28 -68 28 -157 0 -90 -3 -106 -29 -159 -38 -78 -93 -131 -174 -169 -59
-28 -77 -31 -152 -30 -68 0 -96 5 -142 26 -79 35 -142 97 -180 176 -29 60 -32
75 -32 156 0 71 5 101 22 139 30 65 75 120 129 158 68 46 115 58 219 55 75 -2
100 -7 148 -31z m807 7 c25 -11 61 -35 81 -52 l37 -32 3 53 3 53 44 3 c28 2
47 -1 52 -10 12 -19 11 -565 -1 -671 -16 -135 -56 -199 -157 -249 -115 -56
-294 -51 -429 13 -84 40 -93 51 -69 95 22 40 33 42 83 10 44 -29 170 -66 225
-66 57 0 143 28 177 57 42 35 61 84 67 177 l6 78 -49 -37 c-67 -52 -106 -66
-194 -72 -246 -17 -421 180 -371 417 23 107 125 217 230 247 67 19 205 12 262
-14z"/>
<path d="M1100 2170 l0 -162 193 4 c215 3 250 13 294 77 36 53 39 94 12 148
-41 79 -68 87 -301 91 l-198 3 0 -161z"/>
<path d="M1100 1750 l0 -170 158 0 c270 1 351 21 387 97 19 39 19 103 1 147
-31 74 -117 96 -373 96 l-173 0 0 -170z"/>
<path d="M2525 2092 c-23 -9 -54 -27 -71 -39 -42 -30 -84 -113 -91 -178 -19
-187 129 -324 311 -285 51 10 67 20 111 64 36 36 55 65 64 99 17 60 10 170
-14 217 -57 114 -198 169 -310 122z"/>
<path d="M3343 2089 c-161 -62 -205 -274 -84 -398 48 -49 121 -81 186 -81 105
0 221 82 243 172 36 141 -20 258 -146 307 -66 26 -131 26 -199 0z"/>
</g>
</svg>
